PathFileType	4	(X/Y/Z)	C:\Users\WrightLab\Desktop\Jo\P5V114.trc
DataRate	CameraRate	NumFrames	NumMarkers	Units	OrigDataRate	OrigDataStartFrame	OrigNumFrames
100.00	100.00	      21	19	mm	100.00	654	      1045
Frame#	Time	Headset_Front			Headset_Back			Headset_Left			Headset_Right			Left_Shoulder			Right_Shoulder			Sternum			C7			Left Elbow			Right Elbow			Left Wrist			Right Wrist			Left ASIS			Right ASIS			S2			Left Knee			Right Knee			Left Ankle			Right Ankle			
		X1	Y1	Z1	X2	Y2	Z2	X3	Y3	Z3	X4	Y4	Z4	X5	Y5	Z5	X6	Y6	Z6	X7	Y7	Z7	X8	Y8	Z8	X9	Y9	Z9	X10	Y10	Z10	X11	Y11	Z11	X12	Y12	Z12	X13	Y13	Z13	X14	Y14	Z14	X15	Y15	Z15	X16	Y16	Z16	X17	Y17	Z17	X18	Y18	Z18	X19	Y19	Z19	

654	6.530	69.04887	1456.33252	85.50549	-47.78869	1612.83276	166.76590				173.96548	1546.95654	143.26523	-127.18037	1457.72339	246.04889	240.01883	1507.72437	428.90826	132.50645	1331.58167	285.91647	2.64261	1548.38184	432.17084	-236.23958	1210.97534	227.07405	298.02740	1273.67432	594.76398	-192.23990	1167.29504	11.16574	364.42706	1134.00891	408.79352	65.34404	933.41089	214.46387	266.96027	989.25476	418.66983	-38.51460	1007.12720	499.25058	29.84882	502.99725	224.75610	361.13556	574.63794	388.96368	-65.88379	103.42181	414.43558	237.89699	178.69987	549.20001	
655	6.540	72.08997	1455.93640	80.19521	-42.27164	1612.75354	163.62238				179.66907	1546.57410	137.22040	-121.00057	1456.89148	243.76181	248.15207	1508.12915	421.53943	139.16240	1330.65039	281.57138	11.13348	1548.45959	428.12650	-229.87802	1210.68726	224.84677	308.49838	1274.12769	588.30078	-189.44012	1165.27942	8.09591	372.16684	1133.32776	401.40060	69.72019	932.64520	211.38712	273.03809	988.42456	412.81061	-29.87824	1007.41345	498.47397	32.65671	501.92709	225.86505	366.68600	573.43884	383.10312	-65.19776	104.26498	414.23740	265.39151	170.29364	537.23682	
656	6.550	75.65768	1455.73779	75.95204	-36.98795	1613.32385	160.48314				182.99237	1545.30542	130.87987	-114.48028	1456.18958	241.32056	256.71268	1507.73926	414.31033	145.56325	1329.58972	276.32401	19.14558	1548.45447	424.32358	-224.14709	1210.37732	221.91916	319.10547	1274.46631	581.08826	-187.36327	1163.25281	5.13860	379.89352	1132.13257	394.60532	74.60477	931.25519	210.13821	279.36905	987.69037	407.19608	-22.25879	1007.96783	498.21194	36.43116	500.68701	227.32045	371.77991	572.46460	377.01141	-65.13316	105.08848	414.39197	292.51556	163.08885	525.16473	
657	6.560	79.30051	1455.76904	71.85004	-31.70667	1613.53833	157.63828				188.75829	1545.16125	126.20439	-107.86924	1455.20740	238.55571	265.24106	1507.18274	408.21475	152.45418	1328.37280	271.30518	27.63270	1548.49731	420.24338	-218.26164	1209.89099	219.99413	329.53784	1274.51294	574.15643	-183.47394	1160.83459	2.09832	387.44565	1131.63220	388.11325	78.56406	930.24115	207.34776	285.30713	986.52344	401.46518	-14.44824	1008.72034	497.65924	39.38441	500.45050	228.10887	377.05792	570.71130	371.98389	-64.70032	105.37181	414.10031	319.72949	155.99957	511.21234	
658	6.570	83.22177	1455.82788	67.45459	-26.41875	1614.01648	154.80836				192.68755	1544.81348	119.82819	-101.28557	1454.55005	236.43759	273.95120	1506.69043	400.61407	159.08730	1327.87012	266.63739	37.64279	1547.60657	415.72910	-212.22714	1209.06384	217.25296	340.16736	1274.61182	567.16852	-180.30357	1158.46619	-1.12089	395.25150	1130.76318	380.47833	83.55220	929.52332	205.54274	289.08200	984.59674	396.14960	-5.54752	1008.35834	496.90833	43.22186	500.14999	228.29579	381.54108	567.81458	367.74451	-64.46236	105.61639	414.11374	345.77109	149.93034	497.17429	
659	6.580	86.94704	1455.94714	62.76884	-21.06550	1614.32312	152.21988				198.22130	1544.75806	114.40496	-94.33759	1453.45251	233.53140	283.17929	1506.19922	394.08322	165.54979	1326.81946	261.39792	46.40559	1546.86841	411.95386	-206.46144	1208.57178	214.57475	351.15710	1274.34241	560.31384	-177.49361	1156.51025	-3.94255	403.08081	1129.72388	373.45474	88.02956	928.43976	202.91853	299.64688	985.21173	391.61130	3.50108	1008.16785	495.63257	46.98106	499.04111	229.28951	386.03934	565.41577	364.06375	-64.06728	106.11877	414.17059	370.81427	144.34879	482.07730	
660	6.590	90.50886	1456.70691	57.82637	-15.61803	1614.41455	149.84361				202.64091	1544.90527	107.55192	-88.03148	1452.63037	231.75638	291.35938	1505.38599	387.22183	172.74771	1325.63293	256.84006	54.97621	1546.78418	408.18973	-200.67235	1208.29333	211.97694	361.82364	1274.10815	553.17303	-175.32887	1154.74231	-7.08239	410.25217	1128.66675	366.21368	92.42841	927.18689	200.56956	306.02792	984.51709	385.81094	12.33123	1008.23041	494.85550	51.38646	498.12216	230.62215	390.62775	562.15894	361.52005	-63.60233	106.62598	414.06870	395.37866	140.28922	466.75061	
661	6.600	93.90483	1456.59583	53.54856	-10.03468	1614.61499	147.45341				207.27614	1544.65881	102.35637	-81.39095	1451.74622	229.61938	300.32953	1504.71667	379.50024	179.03279	1325.20361	251.23576	64.62995	1545.91833	404.05093	-194.98026	1207.53894	209.41409	372.54300	1273.56116	545.55255	-171.86517	1153.07483	-10.06851	418.28619	1127.63367	358.43649	97.23115	926.00842	198.41537	312.98502	983.19354	380.18784	22.17117	1008.11090	493.31442	55.35551	497.18689	231.57513	395.09283	558.91968	358.33652	-62.99780	106.92782	414.34790	417.76135	137.30331	451.14157	
662	6.610	98.31181	1456.96204	48.78279	-4.48775	1614.43140	145.33815				211.82288	1544.71716	96.23331	-74.39712	1450.88550	227.19853	309.51733	1503.65723	373.60654	186.65828	1324.39124	246.01831	73.63913	1545.25537	399.86075	-188.88460	1207.18677	206.64070	383.26465	1273.15332	538.19049	-167.89772	1151.13184	-13.26276	426.09937	1126.32129	351.23975	102.01244	924.25275	195.59637	319.44919	981.83429	374.33688	31.37355	1007.59027	492.50900	59.30602	496.04602	231.48891	399.72607	556.02661	355.56693	-62.38762	107.64017	414.63968	438.03470	135.25856	436.10574	
663	6.620	102.43385	1457.04797	45.05163	1.01734	1614.23840	143.35866				216.60475	1544.91675	90.35014	-67.42458	1449.78052	225.05679	318.36798	1502.44885	366.94156	193.27512	1323.15808	240.51476	82.63336	1545.30798	396.25781	-183.06493	1206.47754	204.42357	394.03790	1272.09460	530.75635	-164.77684	1149.41919	-16.11027	433.15024	1125.12036	343.64005	107.42152	923.18335	193.41756	328.07663	981.42322	368.65741	40.61344	1007.26587	491.18961	63.51108	495.20908	231.95453	405.28671	553.23981	353.04266	-61.91584	108.26366	414.84683	458.21524	133.34518	420.74081	
664	6.630	106.44135	1457.31006	40.95652	6.81731	1614.19055	141.25847				221.18831	1544.53894	84.84983	-60.24190	1449.22949	222.81830	327.16006	1501.58521	359.76886	199.84514	1322.05078	234.66078	92.31721	1543.74377	392.22336	-177.04092	1206.40442	201.78815	404.98111	1271.44653	522.70966	-162.00336	1147.58179	-19.08560	441.56241	1124.12048	335.76489	112.43201	921.75348	190.75795	335.08524	979.60577	362.66568	50.47912	1007.23285	489.82376	67.37481	494.43362	232.42271	411.15952	550.66089	351.04446	-61.46647	108.81560	414.78723	474.58835	132.47551	406.20105	
665	6.640	110.40501	1457.24182	36.66835	12.44132	1613.72510	139.43629				226.09291	1544.22217	80.31416	-53.08038	1448.25916	220.84314	335.73596	1500.21545	353.23938	207.07451	1321.65442	229.64320	101.36244	1543.28760	388.87457	-171.16534	1205.59814	198.75526	416.05096	1270.54077	515.52612	-158.88918	1146.78479	-22.21774	449.22900	1122.68152	328.26129	118.06184	920.70020	187.25047	343.16556	979.16583	357.03632	59.49528	1006.85980	488.75015	71.57108	493.15805	232.39497	417.00595	548.27795	348.62506	-60.75019	110.16116	414.67996	488.59183	132.09483	392.08365	
666	6.650	114.88352	1456.80481	33.21930	18.27035	1613.42004	137.43610				230.95515	1543.78027	74.80939	-45.70705	1447.33740	218.93993	344.29767	1499.22302	346.27274	214.08023	1320.51599	224.75366	110.52969	1542.79956	385.53833	-164.79741	1205.47717	195.54869	427.13712	1269.53418	507.39719	-155.64194	1144.04993	-25.06263	456.77866	1121.35474	319.75055	123.44576	919.25598	183.94308	351.56421	978.04785	350.78217	69.69016	1006.29633	487.00919	75.74786	492.62903	232.14919	424.00732	545.83783	346.56479	-60.18068	110.82341	414.31146	500.33182	131.04926	378.93967	
667	6.660	119.03767	1456.45007	29.56215	24.49061	1612.92542	135.29216				236.22842	1543.47913	69.54756	-38.74274	1446.82544	217.41176	353.04138	1498.43518	339.67151	221.18929	1319.19421	219.95117	120.21691	1541.74146	381.76990	-159.10947	1205.15491	192.68237	437.91156	1268.18018	499.87039	-153.52066	1142.19592	-28.84336	464.28360	1120.01550	311.21597	129.44243	917.41321	181.40695	360.04587	977.26483	344.41376	79.94851	1005.65802	485.11588	80.18025	491.79816	231.61403	430.74490	543.41058	342.86285	-59.16861	112.49325	413.85709	509.45355	130.02348	367.28784	
668	6.670	123.57687	1455.72827	26.10512	29.93491	1612.20032	133.70856				241.15831	1542.35376	64.60594	-31.06493	1445.88000	215.05836	361.49872	1496.93347	333.46146	228.09270	1318.70154	214.98613	129.52161	1540.93359	378.58081	-153.07382	1204.81677	188.83682	449.28268	1266.90576	491.69855	-151.10538	1141.21765	-32.47765	471.89722	1118.65747	303.28540	135.83755	916.97577	176.78073	368.22998	975.88770	338.77383	89.99181	1005.36462	483.75735	84.50502	490.86554	232.26520	437.46033	541.62262	338.98550	-58.60029	113.75174	413.71277	516.27258	127.98219	357.34805	
669	6.680	128.26488	1454.91187	23.07195	36.38578	1611.28809	131.76511				246.36972	1541.42236	60.98444	-23.72456	1445.38647	213.48129	370.36038	1496.05518	326.74341	235.09966	1317.37036	211.54243	138.23738	1539.84668	375.17557	-146.39520	1205.02686	185.57405	460.06802	1265.77368	483.69479	-149.52541	1139.58984	-35.30102	479.79086	1117.29431	295.15298	142.56950	915.71887	173.81181	376.89615	974.91083	332.31171	100.09521	1004.68427	481.39893	89.59621	490.95065	231.35890	444.63895	540.01434	332.73090	-57.66626	115.02656	413.38461	521.89410	125.77200	348.86401	
670	6.690	132.51910	1454.10547	20.00627	42.34078	1610.33960	130.05357				251.25565	1540.19702	55.88569	-16.08734	1444.30481	211.32352	378.83865	1494.91382	320.25204	242.58000	1315.45264	208.31973	146.92708	1538.74915	372.35132	-140.90771	1204.83582	182.12811	470.95456	1264.69897	475.39096	-145.73106	1137.37695	-39.09586	487.56799	1116.23047	285.65231	149.03441	914.36755	169.69936	385.14191	974.03625	325.39877	109.90234	1003.97925	478.69476	95.69803	490.30954	230.94720	451.58759	537.76123	326.32761	-56.77007	116.26322	412.88239	525.70471	122.87446	342.77521	
671	6.700	136.94730	1452.74780	16.90714	48.31273	1609.21326	128.29413				256.50323	1539.03931	51.53820	-8.68494	1443.75977	210.09331	387.43661	1494.10632	314.44751	249.32980	1314.34058	203.61818	156.41722	1537.46472	369.06689	-134.74127	1204.65137	177.89876	481.91049	1263.07312	467.08453	-143.90976	1135.51941	-43.03960	495.24359	1115.13464	277.59283	157.23610	913.39514	166.38435	394.16190	972.20868	319.81592	119.33652	1002.83917	476.28015	101.75784	490.09061	230.16281	458.59421	535.71893	319.40198	-55.97962	118.65590	412.28342	528.69116	119.79098	337.89145	
672	6.710	142.06187	1451.44885	14.00624	54.75758	1607.84729	126.44296				261.96237	1538.14368	46.63578	-1.22751	1442.38513	208.55885	396.00305	1492.68420	308.59879	256.74377	1313.38904	198.87431	165.64706	1536.09851	365.93329	-128.14340	1204.62280	174.13969	492.73212	1261.76855	458.72867	-142.82693	1134.58118	-47.63581	502.77628	1113.87305	269.32065	164.16811	911.79047	163.00940	403.02194	971.81256	312.70908	129.15929	1001.98627	473.85358	108.91911	489.98608	229.31419	465.36002	533.80902	310.61121	-54.75351	120.75645	412.08826	531.18683	117.59098	334.83966	
673	6.720	146.39059	1450.14758	11.16167	60.64720	1606.49866	124.67674				266.55167	1536.35425	42.61818	6.36542	1441.18579	206.76764	403.91580	1492.13635	302.10150	264.35315	1312.16040	195.89275	173.89531	1535.22046	363.02417	-122.95589	1205.41870	170.30048	503.60602	1260.52979	450.16940	-140.65520	1132.41418	-51.06528	509.87860	1112.35913	261.02527	171.52986	910.57849	158.79117	412.29199	970.59125	306.64673	139.58472	1000.88959	470.58124	117.53207	489.29752	228.25671	472.56616	531.60840	303.14828	-52.92299	123.50572	410.04242	532.01434	116.54854	332.24185	
674	6.730	150.63919	1448.87354	8.52176	66.35644	1605.59216	122.84873				271.54538	1534.49780	39.14072	14.05734	1440.39404	205.29034	411.20706	1490.48462	297.10727	271.55435	1311.14282	191.69957	182.94481	1533.77844	360.04004	-117.16105	1205.72925	166.28423	514.74237	1259.29529	441.85678	-139.56956	1129.53076	-53.94210	517.49036	1111.45691	252.17494	179.81567	909.36639	155.09294	420.95190	969.98279	300.37534	149.30064	1000.08765	467.48401	127.01570	488.63205	226.81734	479.86423	529.77161	294.26492	-51.43770	126.04993	408.80066	530.97766	116.22939	329.77304	
